<svg width="13" height="13" viewBox="0 0 13 13" fill="none" xmlns="http://www.w3.org/2000/svg">
<path d="M11.7843 11.1618L9.92234 9.34147L9.87871 9.2751C9.79756 9.19432 9.68662 9.14881 9.57081 9.14881C9.455 9.14881 9.34406 9.19432 9.26291 9.2751C7.68056 10.7268 5.24234 10.8057 3.56526 9.45949C1.88819 8.11329 1.49266 5.75972 2.64101 3.95966C3.78935 2.15959 6.12522 1.47161 8.09947 2.35197C10.0737 3.23234 11.0737 5.40787 10.4363 7.43576C10.3904 7.58226 10.4279 7.74158 10.5347 7.85369C10.6416 7.96581 10.8014 8.0137 10.9542 7.97932C11.1069 7.94494 11.2292 7.83351 11.2751 7.68701C12.0371 5.2805 10.8863 2.69074 8.56707 1.59305C6.24786 0.495367 3.4563 1.21918 1.99825 3.29625C0.540198 5.37332 0.853232 8.18031 2.73485 9.90138C4.61646 11.6224 7.50198 11.7411 9.52475 10.1806L11.1733 11.7923C11.3436 11.9581 11.6189 11.9581 11.7891 11.7923C11.9592 11.6243 11.9592 11.3536 11.7891 11.1856L11.7843 11.1618Z" fill="white"/>
</svg>
